<?xml version="1.0" encoding="UTF-8"?>
<!DOCTYPE svg PUBLIC "-//W3C//DTD SVG 1.1//EN" "http://www.w3.org/Graphics/SVG/1.1/DTD/svg11.dtd">
<svg xmlns="http://www.w3.org/2000/svg" version="1.1" width="690px" height="271px" style="shape-rendering:geometricPrecision; text-rendering:geometricPrecision; image-rendering:optimizeQuality; fill-rule:evenodd; clip-rule:evenodd" xmlns:xlink="http://www.w3.org/1999/xlink">
<g><path style="opacity:1" fill="#fcfdfc" d="M -0.5,-0.5 C 26.8333,-0.5 54.1667,-0.5 81.5,-0.5C 79.9277,1.86687 80.261,3.86687 82.5,5.5C 84.739,3.86687 85.0723,1.86687 83.5,-0.5C 285.5,-0.5 487.5,-0.5 689.5,-0.5C 689.5,42.5 689.5,85.5 689.5,128.5C 685.312,114.571 675.978,108.404 661.5,110C 657.388,111.779 654.222,114.612 652,118.5C 651.5,109.173 651.334,99.8393 651.5,90.5C 647.167,90.5 642.833,90.5 638.5,90.5C 637.502,114.328 637.169,138.328 637.5,162.5C 642.167,162.5 646.833,162.5 651.5,162.5C 651.5,159.833 651.5,157.167 651.5,154.5C 657.34,163.407 665.34,165.907 675.5,162C 682.968,157.875 687.634,151.708 689.5,143.5C 689.5,185.833 689.5,228.167 689.5,270.5C 499.167,270.5 308.833,270.5 118.5,270.5C 118.5,269.167 118.5,267.833 118.5,266.5C 117.5,266.5 116.5,266.5 115.5,266.5C 115.5,267.833 115.5,269.167 115.5,270.5C 76.8333,270.5 38.1667,270.5 -0.5,270.5C -0.5,180.167 -0.5,89.8333 -0.5,-0.5 Z"/></g>
<g><path style="opacity:1" fill="#add653" d="M 81.5,-0.5 C 82.1667,-0.5 82.8333,-0.5 83.5,-0.5C 85.0723,1.86687 84.739,3.86687 82.5,5.5C 80.261,3.86687 79.9277,1.86687 81.5,-0.5 Z"/></g>
<g><path style="opacity:1" fill="#a7d052" d="M 65.5,5.5 C 70.1585,5.01463 71.4919,6.84796 69.5,11C 64.7107,11.8446 63.3774,10.0113 65.5,5.5 Z"/></g>
<g><path style="opacity:1" fill="#239ed3" d="M 98.5,5.5 C 112.978,4.38182 125.645,8.54848 136.5,18C 146.696,27.9313 154.196,39.4313 159,52.5C 155.068,50.4109 150.901,48.9109 146.5,48C 138.936,34.2222 127.603,25.2222 112.5,21C 101.968,19.0516 92.301,21.0516 83.5,27C 75.7446,32.7533 69.4113,39.7533 64.5,48C 59.6991,48.7339 55.3658,50.5672 51.5,53.5C 56.7676,37.2356 66.4342,23.7356 80.5,13C 86.2398,9.62265 92.2398,7.12265 98.5,5.5 Z"/></g>
<g><path style="opacity:1" fill="#a8d258" d="M 51.5,13.5 C 57.0159,13.4734 58.3492,15.64 55.5,20C 50.5705,20.427 49.2372,18.2604 51.5,13.5 Z"/></g>
<g><path style="opacity:1" fill="#a0c84b" d="M 38.5,23.5 C 44.4877,23.664 45.821,26.164 42.5,31C 36.4034,31.1475 35.0701,28.6475 38.5,23.5 Z"/></g>
<g><path style="opacity:1" fill="#a6c957" d="M 26.5,35.5 C 33.4438,35.2723 35.1105,38.1056 31.5,44C 24.9459,43.9566 23.2793,41.1233 26.5,35.5 Z"/></g>
<g><path style="opacity:1" fill="#9dc348" d="M 17.5,49.5 C 22.3247,49.4881 24.4914,51.8214 24,56.5C 21.0485,60.4815 18.0485,60.4815 15,56.5C 14.3333,55.1667 14.3333,53.8333 15,52.5C 16.045,51.6266 16.8783,50.6266 17.5,49.5 Z"/></g>
<g><path style="opacity:1" fill="#9bc03c" d="M 163.5,70.5 C 163.657,71.8734 163.49,73.2068 163,74.5C 161.984,73.3659 161.317,73.6992 161,75.5C 160.333,74.8333 159.667,74.1667 159,73.5C 157.262,75.7573 154.929,77.0906 152,77.5C 149.835,77.5938 147.835,77.2605 146,76.5C 143.911,77.991 141.911,79.6577 140,81.5C 139.308,80.9747 138.808,80.3081 138.5,79.5C 139.687,78.4805 140.687,77.3139 141.5,76C 139.22,75.7674 137.22,74.934 135.5,73.5C 134.914,73.7093 134.414,74.0426 134,74.5C 133.667,71.5 133.333,68.5 133,65.5C 131.615,66.5505 130.615,67.8839 130,69.5C 129.536,68.9056 129.369,68.2389 129.5,67.5C 134.246,58.6321 141.58,55.4655 151.5,58C 157.747,60.0792 161.747,64.2458 163.5,70.5 Z"/></g>
<g><path style="opacity:1" fill="#97bf45" d="M 10.5,64.5 C 17.1451,65.6236 18.8118,69.1236 15.5,75C 9.66249,76.4798 6.82915,74.3132 7,68.5C 7.68972,66.6498 8.85639,65.3164 10.5,64.5 Z"/></g>
<g><path style="opacity:1" fill="#219cd1" d="M 59.5,57.5 C 77.1551,55.9893 85.3217,63.9893 84,81.5C 79.8055,91.4648 72.3055,95.6314 61.5,94C 47.8305,87.8337 44.3305,78.0003 51,64.5C 53.4412,61.5464 56.2745,59.2131 59.5,57.5 Z"/></g>
<g><path style="opacity:1" fill="#92bb3f" d="M 163.5,70.5 C 166.074,80.5257 162.741,88.0257 153.5,93C 143.729,96.2978 135.896,93.7978 130,85.5C 126.952,79.442 126.785,73.442 129.5,67.5C 129.369,68.2389 129.536,68.9056 130,69.5C 130.615,67.8839 131.615,66.5505 133,65.5C 133.333,68.5 133.667,71.5 134,74.5C 134.414,74.0426 134.914,73.7093 135.5,73.5C 137.22,74.934 139.22,75.7674 141.5,76C 140.687,77.3139 139.687,78.4805 138.5,79.5C 138.808,80.3081 139.308,80.9747 140,81.5C 141.911,79.6577 143.911,77.991 146,76.5C 147.835,77.2605 149.835,77.5938 152,77.5C 154.929,77.0906 157.262,75.7573 159,73.5C 159.667,74.1667 160.333,74.8333 161,75.5C 161.317,73.6992 161.984,73.3659 163,74.5C 163.49,73.2068 163.657,71.8734 163.5,70.5 Z"/></g>
<g><path style="opacity:1" fill="#92bc50" d="M 4.5,81.5 C 12.4885,81.3191 14.8218,84.8191 11.5,92C 1.9771,93.0004 -0.35623,89.5004 4.5,81.5 Z"/></g>
<g><path style="opacity:1" fill="#a0c53c" d="M 192.5,104.5 C 191.717,106.076 190.55,107.409 189,108.5C 187.667,105.833 186.333,105.833 185,108.5C 183.5,107 182,105.5 180.5,104C 181.956,103.577 182.456,102.744 182,101.5C 181.667,101.833 181.333,102.167 181,102.5C 179.97,100.224 178.47,99.5569 176.5,100.5C 175.723,98.2188 174.723,96.0521 173.5,94C 172.833,93.3333 172.167,93.3333 171.5,94C 169.983,95.6851 168.316,97.1851 166.5,98.5C 165.893,98.3764 165.56,98.0431 165.5,97.5C 176.076,88.3475 181.91,76.6808 183,62.5C 190.56,75.4589 193.726,89.4589 192.5,104.5 Z"/></g>
<g><path style="opacity:1" fill="#fafbfa" d="M 105.5,78.5 C 107.759,86.4184 110.926,94.0851 115,101.5C 119.758,108.262 125.258,114.429 131.5,120C 143.805,121.657 155.471,125.324 166.5,131C 169.921,132.699 172.921,134.865 175.5,137.5C 175.751,139.17 176.418,140.67 177.5,142C 176.244,142.417 175.577,143.25 175.5,144.5C 164.397,135.45 151.73,129.95 137.5,128C 138.64,129.973 139.973,131.807 141.5,133.5C 156.687,139.749 168.687,149.749 177.5,163.5C 178.441,165.05 179.107,166.716 179.5,168.5C 178.903,168.735 178.57,169.235 178.5,170C 179.737,173.098 180.237,176.265 180,179.5C 178.607,175.714 176.941,172.048 175,168.5C 174.427,170.641 173.594,172.641 172.5,174.5C 169.544,179.29 165.711,183.29 161,186.5C 157.447,199.595 152.28,211.928 145.5,223.5C 117.255,257.462 89.9219,256.796 63.5,221.5C 57.0203,210.573 52.187,198.906 49,186.5C 47.6244,185.295 46.4577,183.962 45.5,182.5C 47.1667,181.833 48.8333,181.167 50.5,180.5C 50.5,179.5 50.5,178.5 50.5,177.5C 58.8333,186.167 67.1667,194.833 75.5,203.5C 86.6112,215.399 93.4445,228.732 96,243.5C 101.097,224.574 97.9302,207.24 86.5,191.5C 81.6355,183.61 76.6355,175.777 71.5,168C 59.3079,166.196 47.6413,162.696 36.5,157.5C 35.537,157.97 35.537,158.637 36.5,159.5C 33.7746,162.219 32.608,161.552 33,157.5C 33.3333,157.833 33.6667,158.167 34,158.5C 34.5,157.333 35.3333,156.5 36.5,156C 33.328,154.248 30.328,152.248 27.5,150C 28.756,149.583 29.4226,148.75 29.5,147.5C 41.5832,154.752 54.5832,158.752 68.5,159.5C 68.0233,158.522 67.3567,157.689 66.5,157C 55.5557,152.861 45.2224,147.695 35.5,141.5C 25.8588,134.529 18.8588,125.529 14.5,114.5C 15.7498,114.423 16.5831,113.756 17,112.5C 17.3333,112.833 17.6667,113.167 18,113.5C 18.4935,111.866 18.6602,110.199 18.5,108.5C 21.2127,117.575 26.2127,125.242 33.5,131.5C 43.1606,139.833 54.1606,145.833 66.5,149.5C 67.3845,137.731 72.0511,127.731 80.5,119.5C 93.674,108.825 102.007,95.1579 105.5,78.5 Z"/></g>
<g><path style="opacity:1" fill="#23a0d4" d="M 105.5,64.5 C 105.5,69.1667 105.5,73.8333 105.5,78.5C 102.007,95.1579 93.674,108.825 80.5,119.5C 78.2053,119.544 75.872,119.044 73.5,118C 72.8534,116.391 72.02,114.891 71,113.5C 69.6796,113.799 68.1796,113.966 66.5,114C 65.6667,114.833 64.8333,115.667 64,116.5C 63.7508,115.376 63.2508,114.376 62.5,113.5C 61.1255,114.711 59.6255,115.711 58,116.5C 57.0546,116.095 56.3879,115.428 56,114.5C 55.3333,117.167 54.6667,117.167 54,114.5C 51.4825,117.181 48.6492,119.514 45.5,121.5C 43.8453,122.228 42.1786,122.395 40.5,122C 40.8333,121.667 41.1667,121.333 41.5,121C 40.5,120.333 39.5,120.333 38.5,121C 38.8333,121.333 39.1667,121.667 39.5,122C 36.0514,124.276 34.0514,127.443 33.5,131.5C 26.2127,125.242 21.2127,117.575 18.5,108.5C 17.5975,92.1138 21.0975,76.7805 29,62.5C 29.7261,78.4602 36.5595,90.9602 49.5,100C 68.7725,107.912 84.6058,103.412 97,86.5C 100.752,79.3933 103.585,72.0599 105.5,64.5 Z"/></g>
<g><path style="opacity:1" fill="#7593b1" d="M 638.5,90.5 C 638.5,114.167 638.5,137.833 638.5,161.5C 642.5,161.5 646.5,161.5 650.5,161.5C 650.198,158.941 650.532,156.607 651.5,154.5C 651.5,157.167 651.5,159.833 651.5,162.5C 646.833,162.5 642.167,162.5 637.5,162.5C 637.169,138.328 637.502,114.328 638.5,90.5 Z"/></g>
<g><path style="opacity:1" fill="#9ac13e" d="M 165.5,97.5 C 165.56,98.0431 165.893,98.3764 166.5,98.5C 168.316,97.1851 169.983,95.6851 171.5,94C 172.167,93.3333 172.833,93.3333 173.5,94C 174.723,96.0521 175.723,98.2188 176.5,100.5C 178.47,99.5569 179.97,100.224 181,102.5C 181.333,102.167 181.667,101.833 182,101.5C 182.456,102.744 181.956,103.577 180.5,104C 182,105.5 183.5,107 185,108.5C 186.333,105.833 187.667,105.833 189,108.5C 190.55,107.409 191.717,106.076 192.5,104.5C 192.309,118.262 189.143,131.262 183,143.5C 180.914,140.906 178.414,138.906 175.5,137.5C 172.921,134.865 169.921,132.699 166.5,131C 155.471,125.324 143.805,121.657 131.5,120C 125.258,114.429 119.758,108.262 115,101.5C 110.926,94.0851 107.759,86.4184 105.5,78.5C 105.5,73.8333 105.5,69.1667 105.5,64.5C 105.335,61.1501 105.502,57.8168 106,54.5C 106.142,71.9431 112.642,86.4431 125.5,98C 138.925,106.644 152.259,106.478 165.5,97.5 Z"/></g>
<g><path style="opacity:1" fill="#8da4bd" d="M 395.5,90.5 C 395.5,114.167 395.5,137.833 395.5,161.5C 399.833,161.5 404.167,161.5 408.5,161.5C 408.5,137.833 408.5,114.167 408.5,90.5C 409.498,114.328 409.831,138.328 409.5,162.5C 404.5,162.5 399.5,162.5 394.5,162.5C 394.169,138.328 394.502,114.328 395.5,90.5 Z"/></g>
<g><path style="opacity:1" fill="#194780" d="M 395.5,90.5 C 399.833,90.5 404.167,90.5 408.5,90.5C 408.5,114.167 408.5,137.833 408.5,161.5C 404.167,161.5 399.833,161.5 395.5,161.5C 395.5,137.833 395.5,114.167 395.5,90.5 Z"/></g>
<g><path style="opacity:1" fill="#1b4581" d="M 332.5,129.5 C 332.5,132.833 332.5,136.167 332.5,139.5C 320.655,139.172 308.988,139.505 297.5,140.5C 298.676,149.934 304.009,153.767 313.5,152C 316.209,151.459 318.209,149.959 319.5,147.5C 333.632,143.774 335.966,147.274 326.5,158C 313.029,166.336 300.529,165.17 289,154.5C 281.667,142.5 281.667,130.5 289,118.5C 297.872,109.095 308.372,106.928 320.5,112C 327.502,115.826 331.502,121.659 332.5,129.5 Z"/></g>
<g><path style="opacity:1" fill="#1a4680" d="M 454.5,90.5 C 458.833,90.5 463.167,90.5 467.5,90.5C 467.334,99.5062 467.5,108.506 468,117.5C 475.804,108.6 484.971,107.1 495.5,113C 497.956,115.408 499.789,118.241 501,121.5C 501.5,135.163 501.667,148.829 501.5,162.5C 497.167,162.5 492.833,162.5 488.5,162.5C 488.667,151.162 488.5,139.828 488,128.5C 485.27,121.947 480.437,119.78 473.5,122C 470.154,123.851 468.154,126.684 467.5,130.5C 466.506,140.653 466.172,150.986 466.5,161.5C 462.5,161.5 458.5,161.5 454.5,161.5C 454.5,137.833 454.5,114.167 454.5,90.5 Z"/></g>
<g><path style="opacity:1" fill="#2097cc" d="M 80.5,119.5 C 72.0511,127.731 67.3845,137.731 66.5,149.5C 54.1606,145.833 43.1606,139.833 33.5,131.5C 34.0514,127.443 36.0514,124.276 39.5,122C 39.1667,121.667 38.8333,121.333 38.5,121C 39.5,120.333 40.5,120.333 41.5,121C 41.1667,121.333 40.8333,121.667 40.5,122C 42.1786,122.395 43.8453,122.228 45.5,121.5C 48.6492,119.514 51.4825,117.181 54,114.5C 54.6667,117.167 55.3333,117.167 56,114.5C 56.3879,115.428 57.0546,116.095 58,116.5C 59.6255,115.711 61.1255,114.711 62.5,113.5C 63.2508,114.376 63.7508,115.376 64,116.5C 64.8333,115.667 65.6667,114.833 66.5,114C 68.1796,113.966 69.6796,113.799 71,113.5C 72.02,114.891 72.8534,116.391 73.5,118C 75.872,119.044 78.2053,119.544 80.5,119.5 Z"/></g>
<g><path style="opacity:1" fill="#1b4680" d="M 384.5,123.5 C 384.5,136.167 384.5,148.833 384.5,161.5C 380.5,161.5 376.5,161.5 372.5,161.5C 372.768,159.901 372.434,158.568 371.5,157.5C 371.631,156.761 371.464,156.094 371,155.5C 361.295,165.739 351.295,166.072 341,156.5C 335.97,145.389 339.137,137.555 350.5,133C 357.397,131.952 364.23,130.786 371,129.5C 371.753,125.507 370.253,122.674 366.5,121C 360.825,119.243 356.492,120.743 353.5,125.5C 349.029,126.089 345.029,125.423 341.5,123.5C 344.721,113.79 351.554,109.123 362,109.5C 373.216,108.511 380.716,113.178 384.5,123.5 Z"/></g>
<g><path style="opacity:1" fill="#87b643" d="M 14.5,114.5 C 18.8588,125.529 25.8588,134.529 35.5,141.5C 34.5272,142.791 33.5272,142.791 32.5,141.5C 31.029,143.813 29.1956,144.147 27,142.5C 25.699,142.639 24.8656,143.305 24.5,144.5C 8.25309,134.34 0.75309,119.673 2,100.5C 5,97.8333 8,97.8333 11,100.5C 12.2731,105.137 13.4397,109.803 14.5,114.5 Z"/></g>
<g><path style="opacity:1" fill="#eef3f6" d="M 304.5,120.5 C 313.7,118.764 319.033,122.431 320.5,131.5C 312.833,131.5 305.167,131.5 297.5,131.5C 298.087,126.646 300.42,122.979 304.5,120.5 Z"/></g>
<g><path style="opacity:1" fill="#1b4782" d="M 512.5,93.5 C 516.833,93.5 521.167,93.5 525.5,93.5C 525.5,102.5 525.5,111.5 525.5,120.5C 535.833,120.5 546.167,120.5 556.5,120.5C 556.5,111.5 556.5,102.5 556.5,93.5C 561.167,93.5 565.833,93.5 570.5,93.5C 570.5,116.167 570.5,138.833 570.5,161.5C 566.167,161.5 561.833,161.5 557.5,161.5C 557.827,151.985 557.494,142.652 556.5,133.5C 546.5,133.5 536.5,133.5 526.5,133.5C 525.506,142.652 525.173,151.985 525.5,161.5C 521.167,161.5 516.833,161.5 512.5,161.5C 512.5,138.833 512.5,116.167 512.5,93.5 Z"/></g>
<g><path style="opacity:1" fill="#8299b8" d="M 341.5,123.5 C 345.029,125.423 349.029,126.089 353.5,125.5C 349.366,126.485 345.032,126.818 340.5,126.5C 340.263,125.209 340.596,124.209 341.5,123.5 Z"/></g>
<g><path style="opacity:1" fill="#2299ce" d="M 129.5,151.5 C 125.167,150.211 120.834,148.711 116.5,147C 112.065,147.121 108.065,145.954 104.5,143.5C 103.833,143.833 103.167,144.167 102.5,144.5C 99.3017,143.576 96.135,142.576 93,141.5C 90.1781,141.262 87.3447,141.762 84.5,143C 82.8222,145.194 81.8222,147.694 81.5,150.5C 76.4034,141.613 78.0701,134.113 86.5,128C 94.7593,124.975 101.259,127.142 106,134.5C 111.477,126.345 118.643,124.512 127.5,129C 134.628,136.031 135.294,143.531 129.5,151.5 Z"/></g>
<g><path style="opacity:1" fill="#1b4782" d="M 422.5,97.5 C 427.167,97.5 431.833,97.5 436.5,97.5C 436.5,101.833 436.5,106.167 436.5,110.5C 439.5,110.5 442.5,110.5 445.5,110.5C 445.5,114.167 445.5,117.833 445.5,121.5C 442.5,121.5 439.5,121.5 436.5,121.5C 436.334,130.506 436.5,139.506 437,148.5C 437.374,149.416 437.874,150.25 438.5,151C 441.146,151.497 443.813,151.664 446.5,151.5C 446.5,155.167 446.5,158.833 446.5,162.5C 441.156,162.666 435.823,162.499 430.5,162C 426.51,160.01 424.01,156.843 423,152.5C 422.5,142.172 422.334,131.839 422.5,121.5C 420.167,121.5 417.833,121.5 415.5,121.5C 415.5,117.833 415.5,114.167 415.5,110.5C 417.833,110.5 420.167,110.5 422.5,110.5C 422.5,106.167 422.5,101.833 422.5,97.5 Z"/></g>
<g><path style="opacity:1" fill="#1c4781" d="M 217.5,93.5 C 221.833,93.5 226.167,93.5 230.5,93.5C 230.5,102.5 230.5,111.5 230.5,120.5C 240.833,120.5 251.167,120.5 261.5,120.5C 261.5,111.5 261.5,102.5 261.5,93.5C 266.167,93.5 270.833,93.5 275.5,93.5C 275.5,116.5 275.5,139.5 275.5,162.5C 270.833,162.5 266.167,162.5 261.5,162.5C 261.5,152.833 261.5,143.167 261.5,133.5C 251.167,133.5 240.833,133.5 230.5,133.5C 229.506,142.652 229.173,151.985 229.5,161.5C 225.5,161.5 221.5,161.5 217.5,161.5C 217.5,138.833 217.5,116.167 217.5,93.5 Z"/></g>
<g><path style="opacity:1" fill="#365d8c" d="M 217.5,93.5 C 217.5,116.167 217.5,138.833 217.5,161.5C 221.5,161.5 225.5,161.5 229.5,161.5C 229.173,151.985 229.506,142.652 230.5,133.5C 230.5,143.167 230.5,152.833 230.5,162.5C 225.833,162.5 221.167,162.5 216.5,162.5C 216.169,139.327 216.502,116.327 217.5,93.5 Z"/></g>
<g><path style="opacity:1" fill="#5374a1" d="M 332.5,129.5 C 333.482,132.962 333.815,136.629 333.5,140.5C 321.5,140.5 309.5,140.5 297.5,140.5C 308.988,139.505 320.655,139.172 332.5,139.5C 332.5,136.167 332.5,132.833 332.5,129.5 Z"/></g>
<g><path style="opacity:1" fill="#f3f5f7" d="M 367.5,138.5 C 368.833,138.5 370.167,138.5 371.5,138.5C 372.577,147.394 368.744,152.06 360,152.5C 354.079,152.915 351.746,150.248 353,144.5C 357.23,140.818 362.063,138.818 367.5,138.5 Z"/></g>
<g><path style="opacity:1" fill="#80b04a" d="M 35.5,141.5 C 45.2224,147.695 55.5557,152.861 66.5,157C 67.3567,157.689 68.0233,158.522 68.5,159.5C 54.5832,158.752 41.5832,154.752 29.5,147.5C 27.6675,146.752 26.0009,145.752 24.5,144.5C 24.8656,143.305 25.699,142.639 27,142.5C 29.1956,144.147 31.029,143.813 32.5,141.5C 33.5272,142.791 34.5272,142.791 35.5,141.5 Z"/></g>
<g><path style="opacity:1" fill="#1c457e" d="M 638.5,90.5 C 642.833,90.5 647.167,90.5 651.5,90.5C 651.334,99.8393 651.5,109.173 652,118.5C 654.222,114.612 657.388,111.779 661.5,110C 675.978,108.404 685.312,114.571 689.5,128.5C 689.5,133.5 689.5,138.5 689.5,143.5C 687.634,151.708 682.968,157.875 675.5,162C 665.34,165.907 657.34,163.407 651.5,154.5C 650.532,156.607 650.198,158.941 650.5,161.5C 646.5,161.5 642.5,161.5 638.5,161.5C 638.5,137.833 638.5,114.167 638.5,90.5 Z"/></g>
<g><path style="opacity:1" fill="#f7f9f9" d="M 658.5,121.5 C 666.54,119.935 672.04,122.935 675,130.5C 675.726,135.239 675.393,139.905 674,144.5C 670.23,151.414 664.73,153.247 657.5,150C 651.883,144.289 650.05,137.455 652,129.5C 653.305,126.039 655.471,123.372 658.5,121.5 Z"/></g>
<g><path style="opacity:1" fill="#2085be" d="M 129.5,151.5 C 122.834,160.498 114.834,168.165 105.5,174.5C 98.1849,168.353 91.0182,162.019 84,155.5C 82.9055,153.922 82.0722,152.255 81.5,150.5C 81.8222,147.694 82.8222,145.194 84.5,143C 87.3447,141.762 90.1781,141.262 93,141.5C 96.135,142.576 99.3017,143.576 102.5,144.5C 103.167,144.167 103.833,143.833 104.5,143.5C 108.065,145.954 112.065,147.121 116.5,147C 120.834,148.711 125.167,150.211 129.5,151.5 Z"/></g>
<g><path style="opacity:1" fill="#89b948" d="M 175.5,144.5 C 179.765,147.681 183.099,151.681 185.5,156.5C 184.609,157.261 183.942,158.261 183.5,159.5C 184.711,160.72 184.711,161.887 183.5,163C 181.527,163.495 179.527,163.662 177.5,163.5C 168.687,149.749 156.687,139.749 141.5,133.5C 139.973,131.807 138.64,129.973 137.5,128C 151.73,129.95 164.397,135.45 175.5,144.5 Z"/></g>
<g><path style="opacity:1" fill="#3c608d" d="M 615.5,161.5 C 619.5,161.5 623.5,161.5 627.5,161.5C 627.5,144.833 627.5,128.167 627.5,111.5C 623.5,111.5 619.5,111.5 615.5,111.5C 615.828,122.014 615.494,132.347 614.5,142.5C 614.5,131.833 614.5,121.167 614.5,110.5C 619.167,110.5 623.833,110.5 628.5,110.5C 628.5,127.833 628.5,145.167 628.5,162.5C 623.968,162.818 619.634,162.485 615.5,161.5 Z"/></g>
<g><path style="opacity:1" fill="#52759d" d="M 454.5,90.5 C 454.5,114.167 454.5,137.833 454.5,161.5C 458.5,161.5 462.5,161.5 466.5,161.5C 466.172,150.986 466.506,140.653 467.5,130.5C 467.5,141.167 467.5,151.833 467.5,162.5C 462.833,162.5 458.167,162.5 453.5,162.5C 453.169,138.328 453.502,114.328 454.5,90.5 Z"/></g>
<g><path style="opacity:1" fill="#1c457f" d="M 614.5,142.5 C 615.494,132.347 615.828,122.014 615.5,111.5C 619.5,111.5 623.5,111.5 627.5,111.5C 627.5,128.167 627.5,144.833 627.5,161.5C 623.5,161.5 619.5,161.5 615.5,161.5C 615.663,159.143 615.497,156.81 615,154.5C 606.494,164.666 596.827,166 586,158.5C 583.854,155.874 582.521,152.874 582,149.5C 581.5,136.504 581.333,123.504 581.5,110.5C 585.833,110.5 590.167,110.5 594.5,110.5C 594.333,121.505 594.5,132.505 595,143.5C 596.59,150.214 600.756,152.714 607.5,151C 611.133,149.231 613.467,146.398 614.5,142.5 Z"/></g>
<g><path style="opacity:1" fill="#7994b3" d="M 512.5,93.5 C 512.5,116.167 512.5,138.833 512.5,161.5C 516.833,161.5 521.167,161.5 525.5,161.5C 525.173,151.985 525.506,142.652 526.5,133.5C 526.5,143.167 526.5,152.833 526.5,162.5C 521.5,162.5 516.5,162.5 511.5,162.5C 511.169,139.327 511.502,116.327 512.5,93.5 Z"/></g>
<g><path style="opacity:1" fill="#6584a4" d="M 570.5,93.5 C 571.498,116.327 571.831,139.327 571.5,162.5C 566.5,162.5 561.5,162.5 556.5,162.5C 556.5,152.833 556.5,143.167 556.5,133.5C 557.494,142.652 557.827,151.985 557.5,161.5C 561.833,161.5 566.167,161.5 570.5,161.5C 570.5,138.833 570.5,116.167 570.5,93.5 Z"/></g>
<g><path style="opacity:1" fill="#74b143" d="M 160.5,176.5 C 158.428,175.56 156.428,175.893 154.5,177.5C 151.431,176.456 149.264,174.456 148,171.5C 147.667,172.167 147.333,172.833 147,173.5C 145.392,171.9 143.559,170.567 141.5,169.5C 140.108,170.605 138.941,171.939 138,173.5C 137.601,173.272 137.435,172.938 137.5,172.5C 143.299,163.138 145.966,153.138 145.5,142.5C 155.123,147.393 163.29,154.06 170,162.5C 168.346,168.023 165.18,172.69 160.5,176.5 Z"/></g>
<g><path style="opacity:1" fill="#6a86aa" d="M 384.5,123.5 C 385.495,136.323 385.829,149.323 385.5,162.5C 380.833,162.5 376.167,162.5 371.5,162.5C 371.5,160.833 371.5,159.167 371.5,157.5C 372.434,158.568 372.768,159.901 372.5,161.5C 376.5,161.5 380.5,161.5 384.5,161.5C 384.5,148.833 384.5,136.167 384.5,123.5 Z"/></g>
<g><path style="opacity:1" fill="#78ae4b" d="M 185.5,156.5 C 193.012,166.578 195.512,177.912 193,190.5C 190.294,193.978 187.294,194.311 184,191.5C 182.761,185.944 182.094,180.278 182,174.5C 181.434,172.277 180.6,170.277 179.5,168.5C 179.107,166.716 178.441,165.05 177.5,163.5C 179.527,163.662 181.527,163.495 183.5,163C 184.711,161.887 184.711,160.72 183.5,159.5C 183.942,158.261 184.609,157.261 185.5,156.5 Z"/></g>
<g><path style="opacity:1" fill="#217fb8" d="M 86.5,191.5 C 84.0582,191.119 83.3915,191.786 84.5,193.5C 83.1369,194.893 82.3036,196.559 82,198.5C 80.149,196.219 78.4823,196.219 77,198.5C 75.7356,200.16 75.2356,201.827 75.5,203.5C 67.1667,194.833 58.8333,186.167 50.5,177.5C 45.4513,171.786 40.7846,165.786 36.5,159.5C 35.537,158.637 35.537,157.97 36.5,157.5C 47.6413,162.696 59.3079,166.196 71.5,168C 76.6355,175.777 81.6355,183.61 86.5,191.5 Z"/></g>
<g><path style="opacity:1" fill="#94b63e" d="M 417.5,180.5 C 419.167,180.5 420.833,180.5 422.5,180.5C 423.167,184.5 421.5,186.167 417.5,185.5C 417.5,183.833 417.5,182.167 417.5,180.5 Z"/></g>
<g><path style="opacity:1" fill="#2498cf" d="M 45.5,182.5 C 46.4577,183.962 47.6244,185.295 49,186.5C 52.187,198.906 57.0203,210.573 63.5,221.5C 62.8826,221.611 62.3826,221.944 62,222.5C 61.3333,221.167 60.6667,219.833 60,218.5C 58.6801,220.654 56.8468,222.154 54.5,223C 55.4061,224.699 55.7394,226.533 55.5,228.5C 45.4458,211.838 39.2791,193.838 37,174.5C 39.7028,177.371 42.5361,180.038 45.5,182.5 Z"/></g>
<g><path style="opacity:1" fill="#6aaa47" d="M 160.5,176.5 C 149.504,188.331 138.671,200.331 128,212.5C 122,219.833 118.167,228.166 116.5,237.5C 115.833,239.167 115.167,240.833 114.5,242.5C 110.501,225.824 113.001,210.157 122,195.5C 127.03,187.656 132.196,179.989 137.5,172.5C 137.435,172.938 137.601,173.272 138,173.5C 138.941,171.939 140.108,170.605 141.5,169.5C 143.559,170.567 145.392,171.9 147,173.5C 147.333,172.833 147.667,172.167 148,171.5C 149.264,174.456 151.431,176.456 154.5,177.5C 156.428,175.893 158.428,175.56 160.5,176.5 Z"/></g>
<g><path style="opacity:1" fill="#98bd50" d="M 402.5,183.5 C 403.833,183.5 405.167,183.5 406.5,183.5C 406.5,185.833 406.5,188.167 406.5,190.5C 407.833,190.5 409.167,190.5 410.5,190.5C 410.5,191.833 410.5,193.167 410.5,194.5C 408.5,194.5 406.5,194.5 404.5,194.5C 403.108,200.748 402.442,207.082 402.5,213.5C 403.833,213.5 405.167,213.5 406.5,213.5C 406.5,214.833 406.5,216.167 406.5,217.5C 397.992,218.477 395.158,214.81 398,206.5C 399.154,202.553 399.987,198.553 400.5,194.5C 399.167,194.5 397.833,194.5 396.5,194.5C 396.5,193.167 396.5,191.833 396.5,190.5C 398.167,190.5 399.833,190.5 401.5,190.5C 401.448,188.097 401.781,185.764 402.5,183.5 Z"/></g>
<g><path style="opacity:1" fill="#9bc04d" d="M 349.5,190.5 C 361.282,188.616 366.616,193.616 365.5,205.5C 358.833,205.5 352.167,205.5 345.5,205.5C 344.828,212.329 347.828,215.163 354.5,214C 356.702,211.226 359.369,210.393 362.5,211.5C 361.573,214.47 359.573,216.303 356.5,217C 344.584,219.418 339.417,214.585 341,202.5C 342.147,197.204 344.98,193.204 349.5,190.5 Z"/></g>
<g><path style="opacity:1" fill="#9dc050" d="M 378.5,190.5 C 385.597,188.675 390.597,191.008 393.5,197.5C 390.454,198.85 388.12,198.017 386.5,195C 380.307,193.346 376.14,195.513 374,201.5C 372.631,206.437 373.797,210.604 377.5,214C 381.506,215.007 384.506,213.673 386.5,210C 388.167,209.333 389.833,209.333 391.5,210C 387.831,216.997 382.164,219.33 374.5,217C 371.898,216.065 370.398,214.232 370,211.5C 367.389,202.081 370.222,195.081 378.5,190.5 Z"/></g>
<g><path style="opacity:1" fill="#f9fbf5" d="M 360.5,201.5 C 355.637,201.819 350.97,201.486 346.5,200.5C 348.933,194.193 353.1,192.526 359,195.5C 360.128,197.345 360.628,199.345 360.5,201.5 Z"/></g>
<g><path style="opacity:1" fill="#9dc151" d="M 427.5,190.5 C 428.833,190.5 430.167,190.5 431.5,190.5C 431.351,191.552 431.517,192.552 432,193.5C 435.338,190.682 439.171,189.849 443.5,191C 445.049,192.214 446.215,193.714 447,195.5C 446.069,202.768 445.236,210.101 444.5,217.5C 442.712,217.785 441.045,217.452 439.5,216.5C 441.319,209.601 442.153,202.601 442,195.5C 437.533,193.567 433.867,194.567 431,198.5C 429.288,204.057 427.955,209.724 427,215.5C 425.951,217.107 424.451,217.773 422.5,217.5C 423.706,208.381 425.373,199.381 427.5,190.5 Z"/></g>
<g><path style="opacity:1" fill="#99bf4e" d="M 287.5,190.5 C 289.167,190.5 290.833,190.5 292.5,190.5C 292.443,194.133 293.443,194.3 295.5,191C 299.909,189.738 303.743,190.572 307,193.5C 307.153,201.586 306.32,209.586 304.5,217.5C 303.167,217.5 301.833,217.5 300.5,217.5C 300.987,211.256 301.987,205.09 303.5,199C 302.315,193.619 299.315,192.286 294.5,195C 292.951,196.214 291.785,197.714 291,199.5C 289.323,205.408 288.156,211.408 287.5,217.5C 286.167,217.5 284.833,217.5 283.5,217.5C 285.159,208.547 286.492,199.547 287.5,190.5 Z"/></g>
<g><path style="opacity:1" fill="#9dc057" d="M 581.5,190.5 C 592.833,189.167 597.833,194.167 596.5,205.5C 590.167,205.5 583.833,205.5 577.5,205.5C 576.707,211.806 579.374,214.639 585.5,214C 587.87,212.815 590.203,211.649 592.5,210.5C 593.167,210.833 593.833,211.167 594.5,211.5C 590.593,217.144 585.259,218.978 578.5,217C 572.004,211.252 570.838,204.419 575,196.5C 577.063,194.266 579.229,192.266 581.5,190.5 Z"/></g>
<g><path style="opacity:1" fill="#fcfdf7" d="M 591.5,198.5 C 591.5,199.5 591.5,200.5 591.5,201.5C 586.833,201.5 582.167,201.5 577.5,201.5C 579.499,195.672 583.499,193.505 589.5,195C 590.823,195.816 591.489,196.983 591.5,198.5 Z"/></g>
<g><path style="opacity:1" fill="#96be48" d="M 316.5,190.5 C 317.978,190.238 319.311,190.571 320.5,191.5C 319.674,192.451 319.508,193.451 320,194.5C 324.791,189.689 329.791,189.356 335,193.5C 335.281,201.602 334.448,209.602 332.5,217.5C 331.167,217.5 329.833,217.5 328.5,217.5C 329.133,211.606 330.133,205.772 331.5,200C 330.984,193.908 327.984,192.241 322.5,195C 320.959,196.579 319.792,198.413 319,200.5C 317.403,206.086 316.236,211.753 315.5,217.5C 314.167,217.5 312.833,217.5 311.5,217.5C 312.781,208.428 314.448,199.428 316.5,190.5 Z"/></g>
<g><path style="opacity:1" fill="#86b956" d="M 182.5,198.5 C 190.619,198.469 192.619,201.969 188.5,209C 179.412,209.426 177.412,205.926 182.5,198.5 Z"/></g>
<g><path style="opacity:1" fill="#c4dc9a" d="M 346.5,200.5 C 350.97,201.486 355.637,201.819 360.5,201.5C 355.652,202.814 350.652,202.814 345.5,201.5C 345.624,200.893 345.957,200.56 346.5,200.5 Z"/></g>
<g><path style="opacity:1" fill="#c4db9e" d="M 591.5,198.5 C 592.434,199.568 592.768,200.901 592.5,202.5C 587.305,202.821 582.305,202.487 577.5,201.5C 582.167,201.5 586.833,201.5 591.5,201.5C 591.5,200.5 591.5,199.5 591.5,198.5 Z"/></g>
<g><path style="opacity:1" fill="#2874ad" d="M 86.5,191.5 C 97.9302,207.24 101.097,224.574 96,243.5C 93.4445,228.732 86.6112,215.399 75.5,203.5C 75.2356,201.827 75.7356,200.16 77,198.5C 78.4823,196.219 80.149,196.219 82,198.5C 82.3036,196.559 83.1369,194.893 84.5,193.5C 83.3915,191.786 84.0582,191.119 86.5,191.5 Z"/></g>
<g><path style="opacity:1" fill="#99bf54" d="M 416.5,190.5 C 417.978,190.238 419.311,190.571 420.5,191.5C 418.571,199.742 417.071,208.075 416,216.5C 414.644,217.38 413.144,217.714 411.5,217.5C 412.698,208.382 414.365,199.382 416.5,190.5 Z"/></g>
<g><path style="opacity:1" fill="#2096ce" d="M 172.5,174.5 C 171.55,191.599 166.55,207.599 157.5,222.5C 154.956,222.104 152.789,222.771 151,224.5C 149.512,222.17 147.679,221.836 145.5,223.5C 152.28,211.928 157.447,199.595 161,186.5C 165.711,183.29 169.544,179.29 172.5,174.5 Z"/></g>
<g><path style="opacity:1" fill="#98bd51" d="M 536.5,190.5 C 539.85,190.335 543.183,190.502 546.5,191C 547.931,191.465 549.097,192.299 550,193.5C 550.054,201.52 549.554,209.52 548.5,217.5C 546.179,217.771 544.179,217.104 542.5,215.5C 539.038,217.391 535.372,217.891 531.5,217C 526.584,213.134 526.251,208.801 530.5,204C 535.534,202.149 540.701,200.983 546,200.5C 547.513,196.229 546.013,193.895 541.5,193.5C 539.045,193.894 537.045,195.06 535.5,197C 533.833,197.667 532.167,197.667 530.5,197C 532.027,194.31 534.027,192.143 536.5,190.5 Z"/></g>
<g><path style="opacity:1" fill="#f6f8ed" d="M 537.5,204.5 C 540.167,204.5 542.833,204.5 545.5,204.5C 545.36,210.139 542.527,213.472 537,214.5C 532.691,214.534 531.024,212.534 532,208.5C 533.812,207.023 535.645,205.69 537.5,204.5 Z"/></g>
<g><path style="opacity:1" fill="#93bb49" d="M 264.5,190.5 C 278.095,189.338 282.928,195.338 279,208.5C 275.672,216.285 269.839,219.118 261.5,217C 258.572,215.74 256.739,213.573 256,210.5C 254.284,201.796 257.117,195.129 264.5,190.5 Z"/></g>
<g><path style="opacity:1" fill="#fafbf6" d="M 267.5,193.5 C 273.402,193.236 276.069,196.07 275.5,202C 275.569,208.718 272.403,212.884 266,214.5C 261.853,213.514 259.687,210.847 259.5,206.5C 259.904,200.678 262.571,196.344 267.5,193.5 Z"/></g>
<g><path style="opacity:1" fill="#99bf52" d="M 559.5,190.5 C 560.833,190.5 562.167,190.5 563.5,190.5C 563.351,191.552 563.517,192.552 564,193.5C 566.38,190.725 569.213,190.058 572.5,191.5C 571.245,193.78 569.245,194.947 566.5,195C 565.333,196.167 564.167,197.333 563,198.5C 561.026,204.337 559.693,210.337 559,216.5C 557.644,217.38 556.144,217.714 554.5,217.5C 555.788,208.396 557.455,199.396 559.5,190.5 Z"/></g>
<g><path style="opacity:1" fill="#99be4e" d="M 508.5,180.5 C 513.412,180.063 518.078,180.896 522.5,183C 524.782,185.397 526.116,188.231 526.5,191.5C 524.712,191.785 523.045,191.452 521.5,190.5C 515.565,182.503 509.399,182.503 503,190.5C 498.853,197 498.519,203.667 502,210.5C 509.005,216.285 514.838,215.119 519.5,207C 520.944,206.219 522.277,206.386 523.5,207.5C 520.79,214.453 515.623,218.12 508,218.5C 501.555,218.051 497.555,214.718 496,208.5C 493.465,195.921 497.631,186.588 508.5,180.5 Z"/></g>
<g><path style="opacity:1" fill="#96bd4c" d="M 235.5,180.5 C 240.412,180.063 245.078,180.896 249.5,183C 251.782,185.397 253.116,188.231 253.5,191.5C 251.833,191.5 250.167,191.5 248.5,191.5C 247.079,185.782 243.412,183.616 237.5,185C 232.6,186.902 229.433,190.402 228,195.5C 227.333,199.833 227.333,204.167 228,208.5C 231.542,214.876 236.376,216.043 242.5,212C 244.213,210.622 245.547,208.955 246.5,207C 247.793,206.51 249.127,206.343 250.5,206.5C 249.119,212.384 245.453,216.217 239.5,218C 230.623,219.651 225.123,216.151 223,207.5C 221.269,195.636 225.435,186.636 235.5,180.5 Z"/></g>
<g><path style="opacity:1" fill="#84b953" d="M 176.5,214.5 C 184.452,214.572 186.119,217.739 181.5,224C 174.519,223.878 172.853,220.712 176.5,214.5 Z"/></g>
<g><path style="opacity:1" fill="#99bf4f" d="M 460.5,190.5 C 463.518,190.335 466.518,190.502 469.5,191C 471.138,194.057 472.471,194.057 473.5,191C 474.793,190.51 476.127,190.343 477.5,190.5C 476.065,201.649 473.898,212.649 471,223.5C 464.597,228.773 458.263,228.773 452,223.5C 451.517,222.552 451.351,221.552 451.5,220.5C 454.045,220.151 456.045,220.984 457.5,223C 465.563,224.936 469.397,221.769 469,213.5C 463.236,219.075 457.902,218.742 453,212.5C 449.837,203.153 452.337,195.82 460.5,190.5 Z"/></g>
<g><path style="opacity:1" fill="#fcfdf9" d="M 461.5,194.5 C 467.632,192.977 470.965,195.31 471.5,201.5C 471.364,207.815 468.364,211.815 462.5,213.5C 457.965,212.631 455.965,209.797 456.5,205C 456.43,200.641 458.097,197.141 461.5,194.5 Z"/></g>
<g><path style="opacity:1" fill="#93c362" d="M 169.5,228.5 C 175.488,228.664 176.821,231.164 173.5,236C 167.403,236.147 166.07,233.647 169.5,228.5 Z"/></g>
<g><path style="opacity:1" fill="#8dc65a" d="M 159.5,240.5 C 165.555,239.942 166.888,242.109 163.5,247C 158.791,247.082 157.458,244.915 159.5,240.5 Z"/></g>
<g><path style="opacity:1" fill="#2284c0" d="M 63.5,221.5 C 89.9219,256.796 117.255,257.462 145.5,223.5C 147.679,221.836 149.512,222.17 151,224.5C 152.789,222.771 154.956,222.104 157.5,222.5C 149.791,238.377 138.125,250.544 122.5,259C 105.528,265.204 89.8612,262.871 75.5,252C 67.4977,245.175 60.831,237.342 55.5,228.5C 55.7394,226.533 55.4061,224.699 54.5,223C 56.8468,222.154 58.6801,220.654 60,218.5C 60.6667,219.833 61.3333,221.167 62,222.5C 62.3826,221.944 62.8826,221.611 63.5,221.5 Z"/></g>
<g><path style="opacity:1" fill="#b3d8b1" d="M 116.5,237.5 C 116.808,239.924 116.474,242.257 115.5,244.5C 114.702,244.043 114.369,243.376 114.5,242.5C 115.167,240.833 115.833,239.167 116.5,237.5 Z"/></g>
<g><path style="opacity:1" fill="#8ac54f" d="M 149.5,249.5 C 154.159,249.015 155.492,250.848 153.5,255C 148.728,255.81 147.395,253.977 149.5,249.5 Z"/></g>
<g><path style="opacity:1" fill="#9acc64" d="M 139.5,256.5 C 142.966,257.109 143.966,258.942 142.5,262C 137.289,262.546 136.289,260.713 139.5,256.5 Z"/></g>
<g><path style="opacity:1" fill="#8bc654" d="M 127.5,262.5 C 131.161,262.35 132.161,263.85 130.5,267C 126.707,267.487 125.707,265.987 127.5,262.5 Z"/></g>
<g><path style="opacity:1" fill="#8eca5a" d="M 118.5,270.5 C 117.5,270.5 116.5,270.5 115.5,270.5C 115.5,269.167 115.5,267.833 115.5,266.5C 116.5,266.5 117.5,266.5 118.5,266.5C 118.5,267.833 118.5,269.167 118.5,270.5 Z"/></g>
</svg>
